<svg width="14" height="14" viewBox="0 0 14 14" fill="none" xmlns="http://www.w3.org/2000/svg">
<g id="briefcase">
<path id="Vector" d="M11.6667 4.08334H2.33332C1.68899 4.08334 1.16666 4.60567 1.16666 5.25V11.0833C1.16666 11.7277 1.68899 12.25 2.33332 12.25H11.6667C12.311 12.25 12.8333 11.7277 12.8333 11.0833V5.25C12.8333 4.60567 12.311 4.08334 11.6667 4.08334Z" stroke="#39771D" stroke-linecap="round" stroke-linejoin="round"/>
<path id="Vector_2" d="M9.33332 12.25V2.91667C9.33332 2.60725 9.21041 2.3105 8.99161 2.09171C8.77282 1.87292 8.47608 1.75 8.16666 1.75H5.83332C5.5239 1.75 5.22716 1.87292 5.00837 2.09171C4.78957 2.3105 4.66666 2.60725 4.66666 2.91667V12.25" stroke="#39771D" stroke-linecap="round" stroke-linejoin="round"/>
</g>
</svg>
