<svg width="14" height="14" viewBox="0 0 14 14" fill="none" xmlns="http://www.w3.org/2000/svg">
<g id="icon / call">
<path id="Vector" d="M8.23743 3.36149C8.81406 3.47399 9.34401 3.75601 9.75944 4.17144C10.1749 4.58687 10.4569 5.11682 10.5694 5.69346M8.23743 1C9.43545 1.13309 10.5526 1.66959 11.4055 2.52139C12.2584 3.3732 12.7963 4.4897 12.9309 5.68756M12.3405 10.3987V12.1698C12.3412 12.3343 12.3075 12.497 12.2416 12.6477C12.1758 12.7983 12.0792 12.9335 11.958 13.0447C11.8368 13.1558 11.6938 13.2405 11.538 13.2931C11.3823 13.3458 11.2173 13.3654 11.0535 13.3506C9.23683 13.1532 7.49178 12.5324 5.95859 11.5381C4.53215 10.6317 3.32278 9.42235 2.41636 7.99591C1.41861 6.45575 0.797699 4.70222 0.603913 2.87738C0.58916 2.71413 0.608562 2.54959 0.660884 2.39424C0.713206 2.23889 0.797302 2.09614 0.907817 1.97507C1.01833 1.854 1.15284 1.75728 1.30279 1.69104C1.45274 1.62481 1.61483 1.59053 1.77875 1.59037H3.54987C3.83638 1.58755 4.11414 1.68901 4.33138 1.87584C4.54862 2.06266 4.69051 2.32211 4.73061 2.60581C4.80537 3.17261 4.944 3.72913 5.14388 4.26476C5.22331 4.47607 5.2405 4.70572 5.19341 4.92649C5.14633 5.14727 5.03694 5.34993 4.87821 5.51044L4.12844 6.26022C4.96886 7.73824 6.19264 8.96202 7.67067 9.80245L8.42044 9.05268C8.58096 8.89395 8.78361 8.78456 9.00439 8.73747C9.22517 8.69039 9.45482 8.70758 9.66613 8.78701C10.2018 8.98688 10.7583 9.12552 11.3251 9.20027C11.6119 9.24073 11.8738 9.38518 12.061 9.60615C12.2482 9.82712 12.3477 10.1092 12.3405 10.3987Z" stroke="#39771D" stroke-width="0.5" stroke-linecap="round" stroke-linejoin="round"/>
</g>
</svg>
