<svg width="40" height="40" viewBox="0 0 40 40" fill="none" xmlns="http://www.w3.org/2000/svg">
<g id="carbon:user-avatar-filled">
<path id="Vector" d="M33.4363 31.1624C35.2314 29.0025 36.48 26.4421 37.0763 23.6976C37.6726 20.9532 37.5991 18.1055 36.8621 15.3954C36.1251 12.6854 34.7462 10.1927 32.8421 8.12827C30.9379 6.06383 28.5646 4.48836 25.9228 3.53515C23.2811 2.58194 20.4486 2.27902 17.665 2.65202C14.8814 3.02502 12.2285 4.06297 9.9309 5.67805C7.63327 7.29314 5.75844 9.43785 4.46499 11.9308C3.17155 14.4237 2.49755 17.1914 2.50001 19.9999C2.50095 24.0826 3.93969 28.0346 6.56376 31.1624L6.53876 31.1837C6.62626 31.2887 6.72626 31.3787 6.81626 31.4824C6.92876 31.6112 7.05001 31.7324 7.16626 31.8574C7.51626 32.2374 7.87626 32.6024 8.25376 32.9449C8.36876 33.0499 8.48751 33.1474 8.60376 33.2474C9.00376 33.5924 9.41501 33.9199 9.84126 34.2249C9.89626 34.2624 9.94626 34.3112 10.0013 34.3499V34.3349C12.9289 36.3951 16.4214 37.5008 20.0013 37.5008C23.5811 37.5008 27.0736 36.3951 30.0013 34.3349V34.3499C30.0563 34.3112 30.105 34.2624 30.1613 34.2249C30.5863 33.9187 30.9988 33.5924 31.3988 33.2474C31.515 33.1474 31.6338 33.0487 31.7488 32.9449C32.1263 32.6012 32.4863 32.2374 32.8363 31.8574C32.9525 31.7324 33.0725 31.6112 33.1863 31.4824C33.275 31.3787 33.3763 31.2887 33.4638 31.1824L33.4363 31.1624ZM20 9.99992C21.1125 9.99992 22.2001 10.3298 23.1251 10.9479C24.0501 11.566 24.7711 12.4445 25.1968 13.4723C25.6226 14.5002 25.734 15.6312 25.5169 16.7223C25.2999 17.8134 24.7642 18.8157 23.9775 19.6024C23.1908 20.3891 22.1885 20.9248 21.0974 21.1418C20.0062 21.3589 18.8752 21.2475 17.8474 20.8217C16.8196 20.396 15.9411 19.675 15.323 18.75C14.7049 17.825 14.375 16.7374 14.375 15.6249C14.375 14.1331 14.9676 12.7023 16.0225 11.6474C17.0774 10.5926 18.5082 9.99992 20 9.99992ZM10.0088 31.1624C10.0304 29.5211 10.6974 27.9544 11.8655 26.8011C13.0335 25.6478 14.6086 25.0008 16.25 24.9999H23.75C25.3914 25.0008 26.9665 25.6478 28.1346 26.8011C29.3026 27.9544 29.9696 29.5211 29.9913 31.1624C27.2498 33.6328 23.6903 35 20 35C16.3097 35 12.7502 33.6328 10.0088 31.1624Z" fill="url(#paint0_linear_1_296)"/>
</g>
<defs>
<linearGradient id="paint0_linear_1_296" x1="19.9875" y1="2.4971" x2="19.9875" y2="37.5008" gradientUnits="userSpaceOnUse">
<stop stop-color="#3FC411"/>
<stop offset="1" stop-color="#357EE8"/>
</linearGradient>
</defs>
</svg>
