<svg width="22" height="22" viewBox="0 0 22 22" fill="none" xmlns="http://www.w3.org/2000/svg">
<g id="clarity:car-line">
<path id="Vector" d="M9.16667 10.3889H11V11.6111H9.16667V10.3889Z" fill="#39771D"/>
<path id="Vector_2" d="M16.1639 8.65943C15.0801 6.88587 13.6015 5.3864 11.8433 4.27777C11.0311 3.76299 10.1052 3.45487 9.14651 3.3803C8.18779 3.30574 7.22539 3.46699 6.34334 3.84999C5.57182 4.21391 4.90047 4.76016 4.38728 5.44157C3.87409 6.12299 3.53449 6.91908 3.39779 7.7611C3.3489 8.04832 3.31223 8.32332 3.27556 8.59221C2.70341 8.68495 2.18282 8.97798 1.80672 9.41901C1.43061 9.86004 1.22346 10.4204 1.22223 11V14.7461C1.22223 15.0703 1.351 15.3811 1.58021 15.6103C1.80942 15.8396 2.1203 15.9683 2.44445 15.9683V11C2.44445 10.6758 2.57322 10.365 2.80243 10.1357C3.03164 9.90654 3.34252 9.77777 3.66668 9.77777H15.1128C16.2906 9.77938 17.4197 10.248 18.2525 11.0808C19.0854 11.9136 19.5539 13.0427 19.5556 14.2205V14.6667H18.3333C18.0752 14.0373 17.5945 13.525 16.9827 13.2275C16.371 12.93 15.6711 12.8681 15.0167 13.0537C14.3623 13.2393 13.7991 13.6594 13.4346 14.2337C13.0701 14.8081 12.9299 15.4965 13.0406 16.1677C13.1514 16.8389 13.5053 17.4458 14.035 17.8726C14.5647 18.2994 15.233 18.5163 15.9123 18.4818C16.5917 18.4473 17.2346 18.1639 17.7183 17.6857C18.2021 17.2074 18.4928 16.5678 18.535 15.8889H19.5556C19.8797 15.8889 20.1906 15.7601 20.4198 15.5309C20.649 15.3017 20.7778 14.9908 20.7778 14.6667V14.2205C20.7753 12.9017 20.3133 11.625 19.4712 10.61C18.6291 9.59504 17.4596 8.90529 16.1639 8.65943ZM6.72223 8.55554H4.23501C4.23501 8.3661 4.29001 8.17054 4.32668 7.94443C4.43226 7.2731 4.70779 6.63993 5.12709 6.10512C5.54638 5.57031 6.0955 5.15163 6.72223 4.88888V8.55554ZM7.94445 8.55554V4.63221C9.08537 4.48405 10.2424 4.73447 11.22 5.3411C12.5545 6.17232 13.7063 7.2659 14.6056 8.55554H7.94445ZM15.7667 17.3433C15.4645 17.3433 15.1691 17.2537 14.9179 17.0858C14.6666 16.918 14.4708 16.6794 14.3552 16.4002C14.2396 16.121 14.2093 15.8139 14.2683 15.5175C14.3272 15.2211 14.4727 14.9489 14.6864 14.7352C14.9 14.5216 15.1723 14.3761 15.4686 14.3171C15.765 14.2582 16.0722 14.2884 16.3513 14.4041C16.6305 14.5197 16.8691 14.7155 17.037 14.9668C17.2049 15.218 17.2945 15.5134 17.2945 15.8155C17.2945 16.2207 17.1335 16.6093 16.847 16.8958C16.5605 17.1824 16.1719 17.3433 15.7667 17.3433Z" fill="#39771D"/>
<path id="Vector_3" d="M8.65944 14.6667C8.40135 14.0373 7.92056 13.525 7.30882 13.2275C6.69708 12.93 5.99722 12.8681 5.34279 13.0537C4.68836 13.2393 4.12517 13.6594 3.7607 14.2338C3.39622 14.8081 3.25597 15.4966 3.36672 16.1677C3.47746 16.8389 3.83144 17.4458 4.36111 17.8726C4.89078 18.2994 5.55906 18.5163 6.23842 18.4818C6.91779 18.4473 7.56068 18.1639 8.04442 17.6857C8.52816 17.2074 8.81888 16.5678 8.86111 15.8889H12.1V15.7361C12.0879 15.3756 12.1291 15.0152 12.2222 14.6667H8.65944ZM6.11111 17.3433C5.80895 17.3433 5.51357 17.2537 5.26232 17.0859C5.01108 16.918 4.81526 16.6794 4.69963 16.4002C4.58399 16.121 4.55374 15.8139 4.61269 15.5175C4.67164 15.2211 4.81715 14.9489 5.03081 14.7353C5.24447 14.5216 5.5167 14.3761 5.81306 14.3171C6.10942 14.2582 6.4166 14.2884 6.69577 14.4041C6.97493 14.5197 7.21354 14.7155 7.38141 14.9668C7.54929 15.218 7.63889 15.5134 7.63889 15.8156C7.63889 16.2207 7.47793 16.6093 7.19141 16.8959C6.9049 17.1824 6.5163 17.3433 6.11111 17.3433Z" fill="#39771D"/>
</g>
</svg>
