<svg width="161" height="30" viewBox="0 0 161 30" fill="none" xmlns="http://www.w3.org/2000/svg">
<g id="Group 2704">
<rect id="Rectangle 21" x="98.5" y="0.5" width="62" height="29" rx="1.5" fill="white" stroke="#DBDBDB"/>
<line id="Line 13" x1="131.5" y1="1" x2="131.5" y2="29" stroke="#DBDBDB"/>
<rect id="Rectangle 20" x="0.5" y="0.5" width="91" height="29" rx="1.5" fill="white" stroke="#DBDBDB"/>
<line id="Line 11" x1="31.5" y1="1" x2="31.5" y2="29" stroke="#DBDBDB"/>
<line id="Line 12" x1="61.5" y1="1" x2="61.5" y2="29" stroke="#DBDBDB"/>
<g id="Group 2702">
<path id="Vector (Stroke)" fill-rule="evenodd" clip-rule="evenodd" d="M151.788 9.21153C152.071 9.49358 152.071 9.95087 151.788 10.2329L140.233 21.7885C139.951 22.0705 139.494 22.0705 139.212 21.7885C138.929 21.5064 138.929 21.0491 139.212 20.7671L150.767 9.21153C151.049 8.92949 151.506 8.92949 151.788 9.21153Z" fill="#0FC500"/>
<path id="Vector (Stroke)_2" fill-rule="evenodd" clip-rule="evenodd" d="M139.212 9.21153C139.494 8.92949 139.951 8.92949 140.233 9.21153L151.788 20.7671C152.071 21.0491 152.071 21.5064 151.788 21.7885C151.506 22.0705 151.049 22.0705 150.767 21.7885L139.212 10.2329C138.929 9.95087 138.929 9.49358 139.212 9.21153Z" fill="#0FC500"/>
</g>
<g id="Group 2703">
<path id="Vector" d="M112.6 14.85H116.5M112.6 17.45H116.5M112.6 12.25H116.5M110 9.65C110 9.47761 110.068 9.31228 110.19 9.19038C110.312 9.06848 110.478 9 110.65 9H118.45C118.622 9 118.788 9.06848 118.91 9.19038C119.032 9.31228 119.1 9.47761 119.1 9.65V22L116.825 20.375L114.55 22L112.275 20.375L110 22V9.65Z" stroke="#0FC500" stroke-linecap="round" stroke-linejoin="round"/>
</g>
<g id="icon / ride-history">
<path id="Vector_2" d="M83 15.5C83.0026 16.5093 82.7668 17.505 82.3117 18.4059C81.7722 19.4854 80.9427 20.3935 79.9163 21.0283C78.8898 21.663 77.7069 21.9995 76.5 22C75.4907 22.0026 74.495 21.7668 73.5941 21.3117L70 22L70.6883 18.4059C70.2332 17.505 69.9974 16.5093 70 15.5C70.0005 14.2931 70.337 13.1102 70.9717 12.0837C71.6065 11.0573 72.5146 10.2278 73.5941 9.68825C74.495 9.2332 75.4907 8.99739 76.5 9.00002H76.8824C78.4763 9.08796 79.9817 9.76072 81.1105 10.8895C82.2393 12.0183 82.912 13.5237 83 15.1176V15.5Z" stroke="#0FC500" stroke-linecap="round" stroke-linejoin="round"/>
<path id="Vector_3" d="M76.1176 12.0588V16.647L79.1764 18.1764" stroke="#0FC500" stroke-linecap="round" stroke-linejoin="round"/>
</g>
<path id="Vector_4" d="M50.7947 14.8832C50.5126 14.2483 50.1025 13.6785 49.5902 13.2093L49.1673 12.8214C49.153 12.8086 49.1357 12.7995 49.117 12.7949C49.0983 12.7903 49.0788 12.7904 49.0601 12.7951C49.0415 12.7999 49.0243 12.8091 49.01 12.8221C48.9958 12.835 48.9849 12.8512 48.9784 12.8693L48.7895 13.4113C48.6719 13.7513 48.4554 14.0986 48.1488 14.44C48.1284 14.4618 48.1052 14.4676 48.0892 14.4691C48.0732 14.4705 48.0485 14.4676 48.0267 14.4473C48.0064 14.4299 47.9962 14.4037 47.9977 14.3775C48.0514 13.5028 47.7899 12.5162 47.2174 11.4425C46.7437 10.5503 46.0855 9.85435 45.2631 9.36905L44.663 9.01597C44.5846 8.96947 44.4843 9.0305 44.4887 9.12203L44.5206 9.81948C44.5424 10.2961 44.4872 10.7174 44.3564 11.0676C44.1966 11.4962 43.967 11.8944 43.6735 12.2518C43.4693 12.5002 43.2378 12.7249 42.9833 12.9216C42.3706 13.3927 41.8724 13.9962 41.526 14.687C41.1804 15.3839 41.0004 16.1512 41 16.929C41 17.6148 41.1351 18.2789 41.4025 18.9051C41.6606 19.5081 42.0332 20.0553 42.4995 20.5165C42.9703 20.9814 43.5166 21.3476 44.1254 21.6019C44.756 21.8663 45.4244 22 46.1146 22C46.8047 22 47.4731 21.8663 48.1037 21.6033C48.711 21.3505 49.2633 20.9819 49.7296 20.5179C50.2004 20.053 50.5695 19.5096 50.8267 18.9066C51.0936 18.282 51.2306 17.6097 51.2291 16.9305C51.2291 16.2214 51.0838 15.5327 50.7947 14.8832ZM49.0351 19.8132C48.2548 20.5862 47.2189 21.0105 46.1146 21.0105C45.0103 21.0105 43.9743 20.5862 43.194 19.8132C42.4167 19.0417 41.988 18.0188 41.988 16.9305C41.988 16.2984 42.1304 15.6925 42.4109 15.1287C42.684 14.5781 43.0909 14.0855 43.5849 13.7063C43.9 13.4653 44.1857 13.1884 44.4364 12.881C44.7996 12.4378 45.0844 11.9438 45.282 11.4134C45.3631 11.1947 45.422 10.9683 45.4578 10.7378C45.808 11.0603 46.1015 11.4497 46.3471 11.906C46.8324 12.8156 47.0561 13.6249 47.0125 14.3136C47.0021 14.4758 47.0286 14.6383 47.09 14.7888C47.1514 14.9393 47.2461 15.0739 47.3671 15.1825C47.4718 15.2772 47.5944 15.3501 47.7276 15.397C47.8608 15.4438 48.002 15.4638 48.143 15.4557C48.4292 15.4411 48.6922 15.3147 48.884 15.1011C49.0772 14.8846 49.2443 14.6638 49.3838 14.4386C49.5872 14.6987 49.7572 14.982 49.8924 15.2871C50.1234 15.8073 50.2411 16.3609 50.2411 16.9305C50.2411 18.0188 49.8125 19.0431 49.0351 19.8132Z" fill="#0FC500"/>
<g id="icon / notes">
<path id="Rectangle 35" d="M17.9219 10.625H18.5625C19.6671 10.625 20.5625 11.5204 20.5625 12.625V20C20.5625 21.1046 19.6671 22 18.5625 22H12C10.8954 22 10 21.1046 10 20V12.625C10 11.5204 10.8954 10.625 12 10.625H12.6406" stroke="#0FC500" stroke-linejoin="round"/>
<rect id="Rectangle 34" x="12.9375" y="9.5" width="4.6875" height="2.25" rx="0.5" stroke="#0FC500"/>
</g>
</g>
</svg>
