<svg width="16" height="16" viewBox="0 0 16 16" fill="none" xmlns="http://www.w3.org/2000/svg">
<g id="watch">
<path id="Vector" d="M8.00004 12.6667C10.5774 12.6667 12.6667 10.5773 12.6667 8C12.6667 5.42267 10.5774 3.33333 8.00004 3.33333C5.42271 3.33333 3.33337 5.42267 3.33337 8C3.33337 10.5773 5.42271 12.6667 8.00004 12.6667Z" stroke="#565656" stroke-linecap="round" stroke-linejoin="round"/>
<path id="Vector_2" d="M8 6V8L9 9" stroke="#565656" stroke-linecap="round" stroke-linejoin="round"/>
<path id="Vector_3" d="M11.0067 11.5667L10.7734 14.12C10.7433 14.4524 10.5897 14.7615 10.3428 14.9862C10.096 15.2108 9.77381 15.3347 9.44003 15.3333H6.55336C6.21958 15.3347 5.89743 15.2108 5.65056 14.9862C5.4037 14.7615 5.25007 14.4524 5.22003 14.12L4.98669 11.5667M4.99336 4.43333L5.22669 1.88C5.25663 1.54872 5.40931 1.24059 5.65477 1.0161C5.90023 0.791615 6.22073 0.666981 6.55336 0.666667H9.45336C9.78714 0.665313 10.1093 0.7892 10.3562 1.01385C10.603 1.2385 10.7567 1.54757 10.7867 1.88L11.02 4.43333" stroke="#565656" stroke-linecap="round" stroke-linejoin="round"/>
</g>
</svg>
